<?xml version="1.0" encoding="UTF-8" standalone="no"?>
<svg xmlns:rdf="http://www.w3.org/1999/02/22-rdf-syntax-ns#" xmlns="http://www.w3.org/2000/svg" height="47.5mm" width="113.5mm" version="1.1" xmlns:cc="http://creativecommons.org/ns#" xmlns:dc="http://purl.org/dc/elements/1.1/" viewBox="0 0 113.5 47.5">
<defs>
<clipPath id="a" clipPathUnits="userSpaceOnUse">
<path d="m0 0h324.2v141.7h-324.2z"/>
</clipPath>
</defs>
<g transform="translate(0,-162.5)">
<g transform="matrix(.3528 0 0 -.3528 11.06 174.1)">
<g transform="translate(0 .01)">
<g transform="translate(-30.8 -109.4)">
<g clip-path="url(#a)">
<g transform="matrix(1 0 0 -1 0 141.7)">
<path stroke-linejoin="round" d="m243.9 6.137h46.2" stroke="#000" stroke-linecap="round" stroke-miterlimit="10" stroke-width="1.417" fill="none"/>
</g>
<g transform="matrix(1 0 0 -1 0 141.7)">
<path stroke-linejoin="round" d="m243.9 18.94h46.2" stroke="#000" stroke-linecap="round" stroke-miterlimit="10" stroke-width="1.417" fill="none"/>
</g>
<g transform="matrix(1 0 0 -1 0 141.7)">
<path stroke-linejoin="round" d="m243.9 38.14h46.2" stroke="#000" stroke-linecap="round" stroke-miterlimit="10" stroke-width="1.417" fill="none"/>
</g>
<g transform="matrix(1 0 0 -1 0 141.7)">
<path stroke-linejoin="round" d="m87.62 18.94h111.5m38.4 0h6.398" stroke="#000" stroke-linecap="round" stroke-miterlimit="10" stroke-dasharray="1.20189, 1.20189" stroke-width=".6009" fill="none"/>
</g>
<g transform="matrix(1 0 0 -1 0 141.7)">
<path stroke-linejoin="round" d="m15.12 6.137h131" stroke="#000" stroke-linecap="round" stroke-miterlimit="10" stroke-width="1.417" fill="none"/>
</g>
<g transform="matrix(1 0 0 -1 0 141.7)">
<path stroke-linejoin="round" d="m15.12 38.14h131" stroke="#000" stroke-linecap="round" stroke-miterlimit="10" stroke-width="1.417" fill="none"/>
</g>
<g transform="matrix(1 0 0 -1 0 141.7)">
<path stroke-linejoin="round" d="m15.12 78.14h131" stroke="#000" stroke-linecap="round" stroke-miterlimit="10" stroke-width="1.417" fill="none"/>
</g>
<g transform="matrix(1 0 0 -1 0 141.7)">
<path stroke-linejoin="round" d="m15.12 126.1h131" stroke="#000" stroke-linecap="round" stroke-miterlimit="10" stroke-width="1.417" fill="none"/>
</g>
<g transform="matrix(1 0 0 -1 0 141.7)">
<path stroke-linejoin="round" d="m146.3 78.14h1.5m10.52 0h29.36" stroke="#000" stroke-linecap="round" stroke-dasharray="1.20189, 1.20189" stroke-miterlimit="10" stroke-width=".6009" fill="none"/>
</g>
<g transform="matrix(1 0 0 -1 0 141.7)">
<path stroke-linejoin="round" d="m243.9 66.94h46.2" stroke="#000" stroke-linecap="round" stroke-miterlimit="10" stroke-width="1.417" fill="none"/>
</g>
<g transform="matrix(1 0 0 -1 0 141.7)">
<path stroke="#000" stroke-width=".7994" d="m267 17.34v-9.602" fill="none"/>
</g>
<g transform="matrix(0 1 1 0 0 141.7)">
<path stroke-linejoin="round" d="m-13.16 268.9-5.242-1.926 5.242-1.926c-0.836 1.137-0.832 2.695 0 3.852z" fill-rule="evenodd" stroke="#000" stroke-width=".2998"/>
</g>
<g transform="matrix(0 -1 -1 0 0 141.7)">
<path stroke-linejoin="round" d="m11.92-265.1-5.238-1.926 5.238-1.93c-0.836 1.141-0.832 2.696 0 3.856z" fill-rule="evenodd" stroke="#000" stroke-width=".2998"/>
</g>
<g transform="matrix(1 0 0 -1 0 141.7)">
<path stroke="#000" stroke-width=".7994" d="m258.9 18.94v-11.2" fill="none"/>
</g>
<g transform="matrix(0 -1 -1 0 0 141.7)">
<path stroke="#000" stroke-width=".2132" d="m8.699-258.9 0.797-0.801-2.797 0.801 2.797 0.8z" fill-rule="evenodd"/>
</g>
<g transform="matrix(1 0 0 -1 0 141.7)">
<path stroke="#000" stroke-width=".7994" d="m262.1 18.94v17.6" fill="none"/>
</g>
<g transform="matrix(0 1 1 0 0 141.7)">
<path stroke="#000" stroke-width=".2132" d="m-35.58 262.1 0.797-0.797-2.797 0.797 2.797 0.8z" fill-rule="evenodd"/>
</g>
<g transform="matrix(1 0 0 -1 0 141.7)">
<path stroke="#000" stroke-width=".7994" d="m270.2 36.54v-16" fill="none"/>
</g>
<g transform="matrix(0 1 1 0 0 141.7)">
<path stroke-linejoin="round" d="m-32.36 272.1-5.243-1.93 5.243-1.926c-0.84 1.137-0.832 2.695 0 3.856z" fill-rule="evenodd" stroke="#000" stroke-width=".2998"/>
</g>
<g transform="matrix(0 -1 -1 0 0 141.7)">
<path stroke-linejoin="round" d="m24.72-268.3-5.239-1.925 5.239-1.93c-0.836 1.137-0.832 2.695 0 3.855z" fill-rule="evenodd" stroke="#000" stroke-width=".2998"/>
</g>
<g transform="matrix(1 0 0 -1 0 141.7)">
<path stroke="#000" stroke-width=".7994" d="m83 126.1v-46.36" fill="none"/>
</g>
<g transform="matrix(0 -1 -1 0 0 141.7)">
<path stroke="#000" stroke-width=".2132" d="m80.7-83 0.797-0.801-2.797 0.801 2.797 0.797z" fill-rule="evenodd"/>
</g>
<g transform="matrix(1 0 0 -1 0 141.7)">
<path stroke="#000" stroke-width=".7994" d="m122.1 18.94v-11.2" fill="none"/>
</g>
<g transform="matrix(0 -1 -1 0 0 141.7)">
<path stroke="#000" stroke-width=".2132" d="m8.699-122.1 0.797-0.801-2.797 0.801 2.797 0.797z" fill-rule="evenodd"/>
</g>
<g transform="matrix(1 0 0 -1 0 141.7)">
<path stroke="#000" stroke-width=".7994" d="m125.3 18.94v17.6" fill="none"/>
</g>
<g transform="matrix(0 1 1 0 0 141.7)">
<path stroke="#000" stroke-width=".2132" d="m-35.58 125.3 0.797-0.801-2.797 0.801 2.797 0.797z" fill-rule="evenodd"/>
</g>
<g transform="matrix(1 0 0 -1 0 141.7)">
<path stroke="#000" stroke-width=".7994" d="m42.09 38.14v-30.4" fill="none"/>
</g>
<g transform="matrix(0 -1 -1 0 0 141.7)">
<path stroke="#000" stroke-width=".2132" d="m8.699-42.09 0.797-0.801-2.797 0.801 2.797 0.797z" fill-rule="evenodd"/>
</g>
<g transform="matrix(1 0 0 -1 0 141.7)">
<path stroke="#000" stroke-width=".7994" d="m181.3 78.14c-1.066-1.063-1.066-2.125 0-3.188 1.062-1.062 1.062-2.125 0-3.187-1.066-1.063-1.066-2.129 0-3.192 1.062-1.062 1.062-2.125 0-3.187-1.066-1.063-1.066-2.125 0-3.188 1.062-1.066 1.062-2.129 0-3.191-1.066-1.063-1.066-2.125 0-3.188 1.062-1.062 1.062-2.128 0-3.191-1.066-1.063-1.066-2.125 0-3.187 1.062-1.063 1.062-2.126 0-3.188-1.066-1.066-1.066-2.129 0-3.191 1.062-1.063 1.062-2.125 0-3.188-1.066-1.062-1.066-2.125 0-3.191 1.062-1.063 1.062-2.125 0-3.188-1.066-1.062-1.066-2.125 0-3.187 1.062-1.063 0-2.129 0-3.192v-6.175" fill="none"/>
</g>
<g transform="matrix(0 -1 -1 0 0 141.7)">
<path stroke="#000" stroke-width=".4263" d="m24.14-181.3 1.597-1.598-5.597 1.598 5.597 1.602z" fill-rule="evenodd"/>
</g>
<g transform="matrix(1 0 0 -1 0 141.7)">
<path stroke="#e74c3c" stroke-width=".7994" d="m18.09 19.11c-1.063-1.062-1.063-2.125 0-3.187 1.066-1.063 1.066-2.125 0-3.188-1.063-1.066-1.063-2.129 0-3.191 1.066-1.063 1.066-2.125 0-3.188m0 12.75c1.066 1.063 1.066 2.129 0 3.192-1.063 1.062-1.063 2.125 0 3.187 1.066 1.063 1.066 2.125 0 3.188-1.063 1.066-1.063 2.129 0 3.191 1.066 1.063 1.066 2.125 0 3.188-1.063 1.062-1.063 2.125 0 3.191 1.066 1.063 1.066 2.125 0 3.188-1.063 1.062-1.063 2.125 0 3.187 1.066 1.063 1.066 2.129 0 3.191-1.063 1.063-1.063 2.126 0 3.188 1.066 1.062 1.066 2.125 0 3.188-1.063 1.066-1.063 2.128 0 3.191 1.066 1.062 1.066 2.125 0 3.187-1.063 1.063-1.063 2.125 0 3.192 1.066 1.062 1.066 2.125 0 3.187-1.063 1.063 0 2.125 0 3.188v6.179" fill="none"/>
</g>
<g transform="matrix(0 1 1 0 0 141.7)">
<path d="m-73.11 18.09 1.597-1.598-5.593 1.598 5.593 1.601z" fill-rule="evenodd" stroke="#e74c3c" stroke-width=".4263" fill="#e74c3c"/>
</g>
<g transform="matrix(1 0 0 -1 0 141.7)">
<path stroke="#e74c3c" stroke-width=".7994" d="m50.09 38.25c1.066 1.063 1.066 2.125 0 3.188-1.063 1.062-1.063 2.125 0 3.187 1.066 1.063 1.066 2.129 0 3.191-1.063 1.063-1.063 2.126 0 3.188 1.066 1.062 1.066 2.125 0 3.188-1.063 1.066-1.063 2.128 0 3.191 1.066 1.062 1.066 2.125 0 3.187-1.063 1.063-1.063 2.125 0 3.192 1.066 1.062 1.066 2.125 0 3.187-1.063 1.063 0 2.125 0 3.188v6.179" fill="none"/>
</g>
<g transform="matrix(0 1 1 0 0 141.7)">
<path d="m-73.11 50.09 1.597-1.598-5.593 1.598 5.593 1.601z" fill-rule="evenodd" stroke="#e74c3c" stroke-width=".4263" fill="#e74c3c"/>
</g>
<g transform="matrix(1 0 0 -1 0 141.7)">
<path stroke="#e74c3c" stroke-width=".7994" d="m58.09 67.11c-1.063-1.062-1.063-2.125 0-3.187 1.066-1.063 1.066-2.125 0-3.188-1.063-1.066-1.063-2.129 0-3.191 1.066-1.063 1.066-2.125 0-3.188-1.063-1.062-1.063-2.125 0-3.191 1.066-1.062 1.066-2.125 0-3.187-1.063-1.063-1.063-2.125 0-3.188 1.066-1.062 1.066-2.129 0-3.191-1.063-1.063-1.063-2.125 0-3.188m0 28.7c1.066 1.063 1.066 2.129 0 3.192-1.063 1.062-1.063 2.125 0 3.187 1.066 1.063 1.066 2.125 0 3.188-1.063 1.066-1.063 2.129 0 3.191 1.066 1.063 1.066 2.125 0 3.188-1.063 1.062-1.063 2.125 0 3.191 1.066 1.063 1.066 2.125 0 3.188-1.063 1.062-1.063 2.125 0 3.187 1.066 1.063 1.066 2.129 0 3.191-1.063 1.063-1.063 2.126 0 3.188 1.066 1.062 1.066 2.125 0 3.188-1.063 1.066-1.063 2.128 0 3.191 1.066 1.062 1.066 2.125 0 3.187-1.063 1.063-1.063 2.125 0 3.192 1.066 1.062 1.066 2.125 0 3.187-1.063 1.063 0 2.125 0 3.188v6.179" fill="none"/>
</g>
<g transform="matrix(0 1 1 0 0 141.7)">
<path d="m-121.1 58.09 1.597-1.598-5.593 1.598 5.593 1.601z" fill-rule="evenodd" stroke="#e74c3c" stroke-width=".4263" fill="#e74c3c"/>
</g>
<g transform="matrix(1 0 0 -1 0 141.7)">
<path stroke="#000" stroke-width="2.126" d="m106.1 75.32v-52.8" fill="none"/>
</g>
<g transform="matrix(0 1 1 0 0 141.7)">
<path stroke-linejoin="round" d="m-71.22 108.7-6.968-2.562 6.968-2.563c-1.113 1.512-1.105 3.582 0 5.125z" fill-rule="evenodd" stroke="#000" stroke-width=".3986"/>
</g>
<g transform="matrix(0 -1 -1 0 0 141.7)">
<path stroke-linejoin="round" d="m26.61-103.5-6.968-2.562 6.968-2.563c-1.113 1.516-1.105 3.583 0 5.125z" fill-rule="evenodd" stroke="#000" stroke-width=".3986"/>
</g>
<path d="m92.3 135.6v-11.2" stroke="#000" stroke-width=".7994" fill="none"/>
<path d="m92.3 125.3-0.797 0.801 0.797-2.801 0.801 2.801z" fill-rule="evenodd" stroke="#000" stroke-width=".2132"/>
</g>
</g>
</g>
<g>
<text font-size="9.963px" font-family="TeX Gyre Termes Math" transform="matrix(1 0 0 -1 209.1 17.07)">
<tspan y="0" x="0">Δ</tspan>
</text>
<text font-size="7.406px" font-family="Crimson" transform="matrix(1,0,0,-1,216.7,14.86)">
<tspan y="0" x="0 3.5919099">24</tspan>
</text>
<text font-size="9.963px" font-family="TeX Gyre Termes Math" transform="matrix(1 0 0 -1 212.3 .87)">
<tspan y="0" x="0">Δ</tspan>
</text>
<text font-size="7.406px" font-family="Crimson" transform="matrix(1,0,0,-1,219.9,-1.34)">
<tspan y="0" x="0 3.5919099">23</tspan>
</text>
<text font-size="9.963px" font-family="TeX Gyre Termes Math" transform="matrix(1 0 0 -1 241.5 16.97)">
<tspan y="0" x="0">Ω</tspan>
</text>
<text font-size="7.406px" font-family="Crimson" transform="matrix(1 0 0 -1 250 14.76)">
<tspan y="0" x="0 3.5919099">24</tspan>
</text>
<text font-size="9.963px" font-family="XITS Math" transform="matrix(1 0 0 -1 262.3 -8.41)">
<tspan y="0" x="0">ε</tspan>
</text>
<text font-size="7.406px" font-family="Crimson" transform="matrix(1 0 0 -1 267.2 -10.9)">
<tspan y="0" x="0">3</tspan>
</text>
<text font-size="9.963px" font-family="XITS Math" transform="matrix(1 0 0 -1 262.3 23.59)">
<tspan y="0" x="0">ε</tspan>
</text>
<text font-size="7.406px" font-family="Crimson" transform="matrix(1 0 0 -1 267.2 21.1)">
<tspan y="0" x="0">4</tspan>
</text>
<text font-size="9.963px" font-family="XITS Math" transform="matrix(1 0 0 -1 262.3 10.79)">
<tspan y="0" x="0">ε</tspan>
</text>
<text font-size="7.406px" font-family="Crimson" transform="matrix(1 0 0 -1 267.2 8.3)">
<tspan y="0" x="0">2</tspan>
</text>
<text font-size="9.963px" font-family="TeX Gyre Termes Math" transform="matrix(1 0 0 -1 274 10.79)">
<tspan y="0" x="0">=</tspan>
</text>
<text font-size="10px" font-family="Crimson" transform="matrix(1 0 0 -1 283.4 10.79)">
<tspan y="0" x="0">0</tspan>
</text>
<text font-size="9.963px" font-family="TeX Gyre Termes Math" transform="matrix(1,0,0,-1,-29.7,-96.41)">
<tspan y="0" x="0">|</tspan>
</text>
<text font-size="10px" font-family="Crimson" transform="matrix(1,0,0,-1,-27.67,-96.41)">
<tspan y="0" x="0">1</tspan>
</text>
<text font-size="9.963px" font-family="TeX Gyre Termes Math" transform="matrix(1,0,0,-1,-22.82,-96.41)">
<tspan y="0" x="0">⟩</tspan>
</text>
<text font-size="9.963px" font-family="TeX Gyre Termes Math" transform="matrix(1,0,0,-1,-29.7,-48.41)">
<tspan y="0" x="0">|</tspan>
</text>
<text font-size="10px" font-family="Crimson" transform="matrix(1,0,0,-1,-27.67,-48.41)">
<tspan y="0" x="0">2</tspan>
</text>
<text font-size="9.963px" font-family="TeX Gyre Termes Math" transform="matrix(1,0,0,-1,-22.82,-48.41)">
<tspan y="0" x="0">⟩</tspan>
</text>
<text font-size="9.963px" font-family="TeX Gyre Termes Math" transform="matrix(1,0,0,-1,-29.7,-8.41)">
<tspan y="0" x="0">|</tspan>
</text>
<text font-size="10px" font-family="Crimson" transform="matrix(1,0,0,-1,-27.67,-8.41)">
<tspan y="0" x="0">3</tspan>
</text>
<text font-size="9.963px" font-family="TeX Gyre Termes Math" transform="matrix(1,0,0,-1,-22.82,-8.41)">
<tspan y="0" x="0">⟩</tspan>
</text>
<text font-size="9.963px" font-family="TeX Gyre Termes Math" transform="matrix(1,0,0,-1,-29.7,23.59)">
<tspan y="0" x="0">|</tspan>
</text>
<text font-size="10px" font-family="Crimson" transform="matrix(1,0,0,-1,-27.67,23.59)">
<tspan y="0" x="0">4</tspan>
</text>
<text font-size="9.963px" font-family="TeX Gyre Termes Math" transform="matrix(1,0,0,-1,-22.82,23.59)">
<tspan y="0" x="0">⟩</tspan>
</text>
<text font-size="9.963px" font-family="XITS Math" transform="matrix(1,0,0,-1,55.91,-73.36)">
<tspan y="0" x="0">ω</tspan>
</text>
<text font-size="7.406px" font-family="Crimson" transform="matrix(1,0,0,-1,62.69,-75.85)">
<tspan y="0" x="0 3.5919099">21</tspan>
</text>
<text font-size="9.963px" font-family="TeX Gyre Termes Math" transform="matrix(1,0,0,-1,73.14,-73.36)">
<tspan y="0" x="0">≫</tspan>
</text>
<text font-size="9.963px" font-family="XITS Math" transform="matrix(1,0,0,-1,83.93,-73.36)">
<tspan y="0" x="0">ω</tspan>
</text>
<text font-size="7.406px" font-family="Crimson" transform="matrix(1,0,0,-1,90.72,-75.85)">
<tspan y="0" x="0 3.5919099">43</tspan>
</text>
<text font-size="9.963px" font-family="XITS Math" transform="matrix(1,0,0,-1,13.39,5.67)">
<tspan y="0" x="0">ω</tspan>
</text>
<text font-size="7.406px" font-family="Crimson" transform="matrix(1,0,0,-1,20.18,3.18)">
<tspan y="0" x="0 3.5919099">43</tspan>
</text>
<text font-size="9.963px" font-family="TeX Gyre Termes Math" transform="matrix(1 0 0 -1 244.9 1.54)">
<tspan y="0" x="0">Ω</tspan>
</text>
<text font-size="7.406px" font-family="Crimson" transform="matrix(1 0 0 -1 253.4 -.67)">
<tspan y="0" x="0 3.5919099">23</tspan>
</text>
<text font-size="9.963px" font-family="TeX Gyre Termes Math" transform="matrix(1,0,0,-1,97.98,1.07)">
<tspan y="0" x="0">Δ</tspan>
</text>
<text font-size="7.406px" font-family="Crimson" transform="matrix(1 0 0 -1 105.6 -1.14)">
<tspan y="0" x="0 3.5919099">23</tspan>
</text>
<text font-size="9.963px" font-family="TeX Gyre Termes Math" transform="matrix(1,0,0,-1,94.78,16.87)">
<tspan y="0" x="0">Δ</tspan>
</text>
<text font-size="7.406px" font-family="Crimson" transform="matrix(1 0 0 -1 102.4 14.66)">
<tspan y="0" x="0 3.5919099">24</tspan>
</text>
<text font-size="10px" font-family="Crimson" transform="matrix(1,0,0,-1,125.4,-20.79)">
<tspan y="0" x="0 5.75 14.02">RWA</tspan>
</text>
<text font-size="9.963px" font-family="XITS Math" transform="matrix(1 0 0 -1 155.1 -20.79)">
<tspan y="0" x="0">ω</tspan>
</text>
<text font-size="7.406px" font-family="Crimson" transform="matrix(1 0 0 -1 161.9 -23.28)" font-style="italic">
<tspan y="0" x="0">L</tspan>
</text>
<text font-size="9.963px" font-family="TeX Gyre Termes Math" transform="matrix(1,0,0,-1,-26.16,-28.63)">
<tspan y="0" x="0">Γ</tspan>
</text>
<text font-size="7.406px" font-family="Crimson" transform="matrix(1,0,0,-1,-19.26,-30.84)">
<tspan y="0" x="0">4</tspan>
</text>
<text font-size="9.963px" font-family="TeX Gyre Termes Math" transform="matrix(1,0,0,-1,-10.91,-28.63)">
<tspan y="0" x="0">Γ</tspan>
</text>
<text font-size="7.406px" font-family="Crimson" transform="matrix(1,0,0,-1,-4,-30.84)">
<tspan y="0" x="0">3</tspan>
</text>
<text font-size="9.963px" font-family="TeX Gyre Termes Math" transform="matrix(1 0 0 -1 .09 -28.63)">
<tspan y="0" x="0">Π</tspan>
</text>
<text font-size="7.406px" font-family="Crimson" transform="matrix(1,0,0,-1,8.49,-30.84)">
<tspan y="0" x="0 3.5919099">32</tspan>
</text>
<text font-size="9.963px" font-family="XITS Math" transform="matrix(1 0 0 -1 146 17.42)">
<tspan y="0" x="0">ε</tspan>
</text>
<text font-size="7.378px" font-family="XITS Math" transform="matrix(1 0 0 -1 150.8 14.93)">
<tspan y="0" x="0">n</tspan>
</text>
<text font-size="9.963px" font-family="TeX Gyre Termes Math" transform="matrix(1,0,0,-1,79.94,-20.79)">
<tspan y="0" x="0">Ω</tspan>
</text>
<text font-size="7.406px" font-family="Crimson" transform="matrix(1,0,0,-1,88.43,-23)">
<tspan y="0" x="0 3.5919099">24</tspan>
</text>
<text font-size="9.963px" font-family="TeX Gyre Termes Math" transform="matrix(1,0,0,-1,79.94,-33.29)">
<tspan y="0" x="0">Ω</tspan>
</text>
<text font-size="7.406px" font-family="Crimson" transform="matrix(1,0,0,-1,88.43,-35.5)">
<tspan y="0" x="0 3.5919099">23</tspan>
</text>
<text font-size="9.963px" font-family="TeX Gyre Termes Math" transform="matrix(1 0 0 -1 186.8 -8.41)">
<tspan y="0" x="0">|</tspan>
</text>
<text font-size="10px" font-family="Crimson" transform="matrix(1 0 0 -1 188.8 -8.41)">
<tspan y="0" x="0">3</tspan>
</text>
<g font-size="9.963px">
<text font-family="TeX Gyre Termes Math" transform="matrix(1 0 0 -1 193.7 -8.41)">
<tspan y="0" x="0">,</tspan>
</text>
<text font-family="XITS Math" transform="matrix(1 0 0 -1 197.8 -8.41)">
<tspan y="0" x="0">n</tspan>
</text>
<text font-family="TeX Gyre Termes Math" transform="matrix(1 0 0 -1 202.8 -8.41)">
<tspan y="0" x="0">⟩</tspan>
</text>
<text font-family="TeX Gyre Termes Math" transform="matrix(1 0 0 -1 186.8 23.59)">
<tspan y="0" x="0">|</tspan>
</text>
</g>
<text font-size="10px" font-family="Crimson" transform="matrix(1 0 0 -1 188.8 23.59)">
<tspan y="0" x="0">4</tspan>
</text>
<g font-size="9.963px">
<text font-family="TeX Gyre Termes Math" transform="matrix(1 0 0 -1 193.7 23.59)">
<tspan y="0" x="0">,</tspan>
</text>
<text font-family="XITS Math" transform="matrix(1 0 0 -1 197.8 23.59)">
<tspan y="0" x="0">n</tspan>
</text>
<text font-family="TeX Gyre Termes Math" transform="matrix(1 0 0 -1 202.8 23.59)">
<tspan y="0" x="0">⟩</tspan>
</text>
<text font-family="TeX Gyre Termes Math" transform="matrix(1 0 0 -1 170.9 10.79)">
<tspan y="0" x="0">|</tspan>
</text>
</g>
<text font-size="10px" font-family="Crimson" transform="matrix(1 0 0 -1 173 10.79)">
<tspan y="0" x="0">2</tspan>
</text>
<g font-size="9.963px">
<text font-family="TeX Gyre Termes Math" transform="matrix(1 0 0 -1 177.8 10.79)">
<tspan y="0" x="0">,</tspan>
</text>
<text font-family="XITS Math" transform="matrix(1 0 0 -1 182 10.79)">
<tspan y="0" x="0">n</tspan>
</text>
<text font-family="TeX Gyre Termes Math" transform="matrix(1 0 0 -1 189.1 10.79)">
<tspan y="0" x="0">+</tspan>
</text>
</g>
<text font-size="10px" font-family="Crimson" transform="matrix(1 0 0 -1 197.9 10.79)">
<tspan y="0" x="0">1</tspan>
</text>
<text font-size="9.963px" font-family="TeX Gyre Termes Math" transform="matrix(1 0 0 -1 202.8 10.79)">
<tspan y="0" x="0">⟩</tspan>
</text>
<text font-size="9.963px" font-family="TeX Gyre Termes Math" transform="matrix(1 0 0 -1 170.9 -37.21)">
<tspan y="0" x="0">|</tspan>
</text>
<text font-size="10px" font-family="Crimson" transform="matrix(1 0 0 -1 173 -37.21)">
<tspan y="0" x="0">1</tspan>
</text>
<g font-size="9.963px">
<text font-family="TeX Gyre Termes Math" transform="matrix(1 0 0 -1 177.8 -37.21)">
<tspan y="0" x="0">,</tspan>
</text>
<text font-family="XITS Math" transform="matrix(1 0 0 -1 182 -37.21)">
<tspan y="0" x="0">n</tspan>
</text>
<text font-family="TeX Gyre Termes Math" transform="matrix(1 0 0 -1 189.1 -37.21)">
<tspan y="0" x="0">+</tspan>
</text>
</g>
<text font-size="10px" font-family="Crimson" transform="matrix(1 0 0 -1 197.9 -37.21)">
<tspan y="0" x="0">1</tspan>
</text>
<text font-size="9.963px" font-family="TeX Gyre Termes Math" transform="matrix(1 0 0 -1 202.8 -37.21)">
<tspan y="0" x="0">⟩</tspan>
</text>
<text font-size="9.963px" font-family="XITS Math" transform="matrix(1 0 0 -1 262.3 -37.43)">
<tspan y="0" x="0">ε</tspan>
</text>
<g font-family="Crimson">
<text font-size="7.406px" transform="matrix(1 0 0 -1 267.2 -39.93)">
<tspan y="0" x="0">1</tspan>
</text>
<text font-size="10px" transform="matrix(1 0 0 -1 117.4 -96.64)" font-style="italic">
<tspan y="0" x="0">E</tspan>
</text>
<text font-size="7.406px" transform="matrix(1 0 0 -1 122.8 -98.85)">
<tspan y="0" x="0">1</tspan>
</text>
<text font-size="10px" transform="matrix(1 0 0 -1 117.4 -48.64)" font-style="italic">
<tspan y="0" x="0">E</tspan>
</text>
<text font-size="7.406px" transform="matrix(1 0 0 -1 122.8 -50.85)">
<tspan y="0" x="0">2</tspan>
</text>
<text font-size="10px" transform="matrix(1 0 0 -1 117.4 -8.14)" font-style="italic">
<tspan y="0" x="0">E</tspan>
</text>
<text font-size="7.406px" transform="matrix(1 0 0 -1 122.8 -10.35)">
<tspan y="0" x="0">3</tspan>
</text>
<text font-size="10px" transform="matrix(1 0 0 -1 117.4 23.36)" font-style="italic">
<tspan y="0" x="0">E</tspan>
</text>
<text font-size="7.406px" transform="matrix(1 0 0 -1 122.8 21.15)">
<tspan y="0" x="0">4</tspan>
</text>
</g>
<g fill="#000000">
<text font-size="9.962px" transform="scale(1,-1)" y="73.368629" x="-2.9062319" font-family="&apos;TeX Gyre Termes Math&apos;">
<tspan y="73.368629" x="-2.9062319" stroke-width=".9999">Γ</tspan>
</text>
<text font-size="7.406px" transform="scale(1,-1)" y="75.578491" x="4.0033369" font-family="Crimson">
<tspan y="75.578491" x="4.0033369" stroke-width=".9999">3</tspan>
</text>
<text font-size="9.962px" transform="scale(1,-1)" y="73.368629" x="8.0930738" font-family="&apos;TeX Gyre Termes Math&apos;">
<tspan y="73.368629" x="8.0930738" stroke-width=".9999">Π</tspan>
</text>
<text font-size="7.406px" transform="scale(1,-1)" y="75.578491" x="16.49255" font-family="Crimson">
<tspan y="75.578491" x="16.49255 20.084225" stroke-width=".9999">31</tspan>
</text>
<text font-size="9.962px" transform="scale(1,-1)" y="-16.855701" x="51.440342" font-family="&apos;TeX Gyre Termes Math&apos;">
<tspan y="-16.855701" x="51.440342" stroke-width=".9999">Δ</tspan>
</text>
</g>
</g>
</g>
</g>
</svg>
