<?xml version="1.0" encoding="UTF-8" standalone="no"?>
<svg xmlns:rdf="http://www.w3.org/1999/02/22-rdf-syntax-ns#" xmlns="http://www.w3.org/2000/svg" xml:space="preserve" height="194.1" viewBox="0 0 432.88901 194.11501" width="432.9" version="1.1" xmlns:cc="http://creativecommons.org/ns#" xmlns:dc="http://purl.org/dc/elements/1.1/"><defs><clipPath id="a" clipPathUnits="userSpaceOnUse"><path d="m0 0h324.2v141.7h-324.2z"/></clipPath></defs><g transform="matrix(1.333 0 0 -1.333 0 194.1)"><g transform="translate(30.99 314)"><g transform="translate(-30.78 -309.2)"><g clip-path="url(#a)"><g transform="matrix(1 0 0 -1 0 141.7)"><path d="m197 27.06h120.8" stroke="#000" stroke-width="1.417" fill="none"/></g><g transform="matrix(1 0 0 -1 0 141.7)"><path d="m197 43.06h120.8" stroke="#000" stroke-width="1.417" fill="none"/></g><g transform="matrix(1 0 0 -1 0 141.7)"><path d="m197 55.86h120.8" stroke="#000" stroke-width="1.417" fill="none"/></g><g transform="matrix(1 0 0 -1 0 141.7)"><path d="m197 65.46h120.8" stroke="#000" stroke-width="1.417" fill="none"/></g><g transform="matrix(1 0 0 -1 0 141.7)"><path d="m197 92.66h120.8" stroke="#000" stroke-width="1.417" fill="none"/></g><g transform="matrix(1 0 0 -1 0 141.7)"><path d="m197 129.5h120.8" stroke="#000" stroke-width="1.417" fill="none"/></g><g transform="matrix(1 0 0 -1 0 141.7)"><path d="m6.75 27.06h120.8" stroke="#000" stroke-width="1.417" fill="none"/></g><g transform="matrix(1 0 0 -1 0 141.7)"><path d="m6.75 44.8 120.9 0.004" stroke="#000" stroke-width="1.417" fill="none"/></g><g transform="matrix(1 0 0 -1 0 141.7)"><path d="m6.75 55.48h120.8" stroke="#000" stroke-width="1.417" fill="none"/></g><g transform="matrix(1 0 0 -1 0 141.7)"><path d="m6.75 60.4h120.8" stroke="#000" stroke-width="1.417" fill="none"/></g><g transform="matrix(1 0 0 -1 0 141.7)"><path d="m6.75 98.21h120.8" stroke="#000" stroke-width="1.417" fill="none"/></g><g transform="matrix(1 0 0 -1 0 141.7)"><path d="m6.75 129.5h120.8" stroke="#000" stroke-width="1.417" fill="none"/></g><g transform="matrix(1 0 0 -1 0 141.7)"><path d="m198.3 39.36v-8.59" stroke="#000" stroke-width=".5669" fill="none"/></g><path d="m199.6 102.8-1.25-3.41-1.254 3.41c0.367-0.273 0.809-0.41 1.246-0.41 0.442 0 0.883 0.137 1.258 0.41z" fill-rule="evenodd"/><path d="m197.1 110.6 1.254 3.41 1.254-3.41c-0.371 0.273-0.808 0.41-1.25 0.41-0.437 0-0.879-0.137-1.258-0.41z" fill-rule="evenodd"/><g transform="matrix(1 0 0 -1 0 141.7)"><path d="m198.3 52.15v-5.38" stroke="#000" stroke-width=".5669" fill="none"/></g><path d="m199.6 89.99-1.25-3.406-1.254 3.406c0.367-0.273 0.809-0.41 1.246-0.406 0.442 0 0.883 0.133 1.258 0.406z" fill-rule="evenodd"/><path d="m197.1 94.55 1.254 3.41 1.254-3.41c-0.371 0.273-0.808 0.41-1.25 0.41-0.437 0-0.879-0.137-1.258-0.41z" fill-rule="evenodd"/><g transform="matrix(1 0 0 -1 0 141.7)"><path d="m198.3 61.75v-2.18" stroke="#000" stroke-width=".5669" fill="none"/></g><path d="m199.6 80.38-1.25-3.407-1.254 3.407c0.367-0.274 0.809-0.407 1.246-0.407 0.442 0 0.883 0.137 1.258 0.407z" fill-rule="evenodd"/><path d="m197.1 81.76 1.254 3.406 1.254-3.406c-0.371 0.269-0.808 0.406-1.25 0.406-0.437 0-0.879-0.137-1.258-0.406z" fill-rule="evenodd"/><g transform="matrix(1 0 0 -1 0 141.7)"><path d="m198.3 125.8v-29.43" stroke="#000" stroke-width=".5669" fill="none"/></g><path d="m199.6 16.38-1.25-3.407-1.254 3.407c0.367-0.274 0.809-0.407 1.246-0.407 0.442 0 0.883 0.137 1.258 0.407z" fill-rule="evenodd"/><path d="m197.1 44.96 1.254 3.406 1.254-3.406c-0.371 0.269-0.808 0.406-1.25 0.406-0.437 0-0.879-0.137-1.258-0.406z" fill-rule="evenodd"/><g transform="matrix(1 0 0 -1 0 141.7)"><path d="m206.3 88.95v-61.89" stroke="#000" stroke-width=".5669" fill="none"/></g><path d="m207.6 53.18-1.25-3.406-1.254 3.406c0.367-0.273 0.809-0.406 1.246-0.406 0.442 0 0.883 0.137 1.258 0.406z" fill-rule="evenodd"/><g transform="matrix(1 0 0 -1 0 141.7)"><path d="m215.9 125.8v-82.74" stroke="#000" stroke-width=".5669" fill="none"/></g><path d="m217.2 16.38-1.254-3.407-1.254 3.407c0.371-0.274 0.808-0.407 1.25-0.407 0.437 0 0.879 0.137 1.258 0.407z" fill-rule="evenodd"/><g transform="matrix(1 0 0 -1 0 141.7)"><path d="m235.1 125.8v-69.94" stroke="#000" stroke-width=".5669" fill="none"/></g><g transform="matrix(1 0 0 -1 0 141.7)"><path d="m254.3 125.8v-60.34" stroke="#000" stroke-width=".5669" fill="none"/></g><path d="m236.4 16.38-1.254-3.407-1.25 3.407c0.367-0.274 0.805-0.407 1.246-0.407s0.883 0.137 1.258 0.407z" fill-rule="evenodd"/><path d="m255.6 16.38-1.25-3.407-1.254 3.407c0.367-0.274 0.809-0.407 1.246-0.407 0.442 0 0.883 0.137 1.258 0.407z" fill-rule="evenodd"/><g transform="matrix(1 0 0 -1 0 141.7)"><path d="m225.5 88.95 0.004-45.89" stroke="#000" stroke-width=".5669" fill="none"/></g><path d="m226.8 53.18-1.25-3.406-1.254 3.406c0.371-0.273 0.809-0.406 1.246-0.406 0.442 0 0.883 0.137 1.258 0.406z" fill-rule="evenodd"/><g transform="matrix(1 0 0 -1 0 141.7)"><path d="m244.7 88.95v-33.09" stroke="#000" stroke-width=".5669" fill="none"/></g><path d="m246 53.18-1.254-3.406-1.253 3.406c0.371-0.273 0.808-0.406 1.25-0.406 0.437 0 0.878 0.137 1.257 0.406z" fill-rule="evenodd"/><g transform="matrix(1 0 0 -1 0 141.7)"><path d="m12.93 94.5v-67.44" stroke="#000" stroke-width=".5669" fill="none"/></g><path d="m14.18 47.64-1.254-3.411-1.254 3.411c0.371-0.274 0.808-0.411 1.25-0.411 0.437 0 0.879 0.137 1.258 0.411z" fill-rule="evenodd"/><g transform="matrix(1 0 0 -1 0 141.7)"><path d="m22.52 125.8 0.01-81" stroke="#000" stroke-width=".5669" fill="none"/></g><path d="m23.78 16.38-1.25-3.407-1.254 3.407c0.371-0.274 0.809-0.407 1.246-0.407 0.442 0 0.883 0.137 1.258 0.407z" fill-rule="evenodd"/><g transform="matrix(1 0 0 -1 0 141.7)"><path d="m41.73 125.8v-70.32" stroke="#000" stroke-width=".5669" fill="none"/></g><g transform="matrix(1 0 0 -1 0 141.7)"><path d="m60.93 125.8v-65.4" stroke="#000" stroke-width=".5669" fill="none"/></g><path d="m42.98 16.38-1.254-3.407-1.253 3.407c0.371-0.274 0.808-0.407 1.25-0.407 0.437 0 0.878 0.137 1.257 0.407z" fill-rule="evenodd"/><path d="m62.18 16.38-1.254-3.407-1.254 3.407c0.371-0.274 0.808-0.407 1.25-0.407 0.437 0 0.879 0.137 1.258 0.407z" fill-rule="evenodd"/><g transform="matrix(1 0 0 -1 0 141.7)"><path d="m32.12 94.5v-49.7" stroke="#000" stroke-width=".5669" fill="none"/></g><path d="m33.38 47.64-1.254-3.411-1.25 3.411c0.367-0.274 0.805-0.411 1.246-0.411s0.883 0.137 1.258 0.411z" fill-rule="evenodd"/><g transform="matrix(1 0 0 -1 0 141.7)"><path d="m51.32 94.5v-39.02" stroke="#000" stroke-width=".5669" fill="none"/></g><path d="m52.58 47.64-1.25-3.411-1.254 3.411c0.367-0.274 0.809-0.411 1.246-0.411 0.442 0 0.883 0.137 1.258 0.411z" fill-rule="evenodd"/><g transform="matrix(1 0 0 -1 0 141.7)"><path d="m124.9 41.09v-10.32" stroke="#000" stroke-width=".5669" fill="none"/></g><path d="m126.2 101-1.254-3.406-1.254 3.406c0.371-0.27 0.808-0.406 1.25-0.406 0.437 0 0.879 0.136 1.258 0.406z" fill-rule="evenodd"/><path d="m123.7 110.6 1.254 3.41 1.25-3.41c-0.367 0.273-0.805 0.41-1.246 0.41-0.442 0-0.883-0.137-1.258-0.41z" fill-rule="evenodd"/><g transform="matrix(1 0 0 -1 0 141.7)"><path d="m124.9 51.78v-3.27" stroke="#000" stroke-width=".5669" fill="none"/></g><path d="m126.2 90.36-1.254-3.406-1.254 3.406c0.371-0.269 0.808-0.406 1.25-0.406 0.437 0 0.879 0.137 1.258 0.406z" fill-rule="evenodd"/><path d="m123.7 92.81 1.254 3.407 1.25-3.407c-0.367 0.274-0.805 0.407-1.246 0.407-0.442 0-0.883-0.137-1.258-0.407z" fill-rule="evenodd"/><g transform="matrix(1 0 0 -1 0 141.7)"><path d="m124.9 59.2v-2.5" stroke="#000" stroke-width=".5669" fill="none"/></g><path d="m126.2 85.44-1.254-3.406-1.254 3.406c0.371-0.269 0.808-0.406 1.25-0.406 0.437 0 0.879 0.137 1.258 0.406z" fill-rule="evenodd"/><path d="m123.7 82.13 1.254 3.406 1.25-3.406c-0.367 0.273-0.805 0.406-1.246 0.406-0.442 0-0.883-0.137-1.258-0.406z" fill-rule="evenodd"/><g transform="matrix(1 0 0 -1 0 141.7)"><path d="m124.9 125.8v-23.9" stroke="#000" stroke-width=".5669" fill="none"/></g><path d="m126.2 16.38-1.254-3.407-1.254 3.407c0.371-0.274 0.808-0.407 1.25-0.407 0.437 0 0.879 0.137 1.258 0.407z" fill-rule="evenodd"/><path d="m123.7 39.4 1.254 3.406 1.25-3.406c-0.367 0.274-0.805 0.41-1.246 0.406-0.442 0-0.883-0.132-1.258-0.406z" fill-rule="evenodd"/><g transform="matrix(1 0 0 -1 0 141.7)"><path d="m311.9 92.66v-65.6" stroke="#000" stroke-width="2.268" fill="none"/></g><g transform="matrix(1 0 0 -1 0 141.7)"><path d="m283.1 129.5v-86.44" stroke="#000" stroke-width="2.268" fill="none"/></g><g transform="matrix(1 0 0 -1 0 141.7)"><path d="m273.5 129.5 0.004-73.6" stroke="#000" stroke-width="2.268" fill="none"/></g><g transform="matrix(1 0 0 -1 0 141.7)"><path d="m263.9 129.5v-64.04" stroke="#000" stroke-width="2.268" fill="none"/></g><g transform="matrix(1 0 0 -1 0 141.7)"><path d="m302.3 92.66v-49.6" stroke="#000" stroke-width="2.268" fill="none"/></g><g transform="matrix(1 0 0 -1 0 141.7)"><path d="m292.7 92.66v-36.8" stroke="#000" stroke-width="2.268" fill="none"/></g><g transform="matrix(1 0 0 -1 0 141.7)"><path d="m118.5 98.21 0.004-71.15" stroke="#000" stroke-width="2.268" fill="none"/></g><g transform="matrix(1 0 0 -1 0 141.7)"><path d="m89.73 129.5v-84.7" stroke="#000" stroke-width="2.268" fill="none"/></g><g transform="matrix(1 0 0 -1 0 141.7)"><path d="m80.12 129.5v-74.02" stroke="#000" stroke-width="2.268" fill="none"/></g><g transform="matrix(1 0 0 -1 0 141.7)"><path d="m70.52 129.5 0.01-69.1" stroke="#000" stroke-width="2.268" fill="none"/></g><g transform="matrix(1 0 0 -1 0 141.7)"><path d="m108.9 98.21v-53.41" stroke="#000" stroke-width="2.268" fill="none"/></g><g transform="matrix(1 0 0 -1 0 141.7)"><path d="m99.32 98.21v-42.73" stroke="#000" stroke-width="2.268" fill="none"/></g><g transform="matrix(1 0 0 -1 0 141.7)"><path d="m108.9 109.3-9-8.352" stroke="#000" stroke-dasharray="1.133858, 2.267717" stroke-width=".5669" fill="#000024"/></g><g transform="matrix(1 0 0 -1 0 141.7)"><path d="m108.9 109.3v-8.352" stroke="#000" stroke-dasharray="1.133858, 2.267717" stroke-width=".5669" fill="none"/></g><g transform="matrix(1 0 0 -1 0 141.7)"><path d="m108.9 109.3 9-8.352" stroke="#000" stroke-dasharray="1.133858, 2.267717" stroke-width=".5669" fill="#000024"/></g><g transform="matrix(1 0 0 -1 0 141.7)"><path d="m302.4 109.3-9-12.85" stroke="#000" stroke-dasharray="1.133858, 2.267717" stroke-width=".5669" fill="#000024"/></g><g transform="matrix(1 0 0 -1 0 141.7)"><path d="m302.4 109.3v-12.9" stroke="#000" stroke-dasharray="1.133858, 2.267717" stroke-width=".5669" fill="none"/></g><g transform="matrix(1 0 0 -1 0 141.7)"><path d="m302.4 109.3 9-12.85" stroke="#000" stroke-dasharray="1.133858, 2.267717" stroke-width=".5669" fill="#000024"/></g><g transform="matrix(1 0 0 -1 0 141.7)"><path d="m215.9 45.66c2.355 0 4.25 1.895 4.25 4.25v14.17c0 2.356-1.895 4.254-4.25 4.254-2.356 0-4.254-1.898-4.254-4.254v-14.17c0-2.355 1.898-4.25 4.254-4.25z" stroke="#000" stroke-width=".5669" fill="#fff"/></g><g transform="matrix(1 0 0 -1 0 141.7)"><path d="m206.3 29.66c2.356 0 4.254 1.895 4.254 4.25v14.17c0 2.356-1.898 4.254-4.254 4.254-2.355 0-4.25-1.898-4.25-4.254v-14.17c0-2.355 1.895-4.25 4.25-4.25z" stroke="#000" stroke-width=".5669" fill="#fff"/></g><g transform="matrix(1 0 0 -1 0 141.7)"><path d="m225.5 45.66c2.356 0 4.254 1.895 4.254 4.25v14.17c0 2.356-1.898 4.254-4.254 4.254-2.355 0-4.25-1.898-4.25-4.254v-14.17c0-2.355 1.895-4.25 4.25-4.25z" stroke="#000" stroke-width=".5669" fill="#fff"/></g><g transform="matrix(1 0 0 -1 0 141.7)"><path d="m235.1 58.45c2.355 0 4.254 1.899 4.254 4.254v14.17c0 2.355-1.899 4.254-4.254 4.254s-4.25-1.899-4.25-4.254v-14.16c0-2.355 1.895-4.254 4.25-4.254z" stroke="#000" stroke-width=".5669" fill="#fff"/></g><g transform="matrix(1 0 0 -1 0 141.7)"><path d="m254.3 68.06c2.356 0 4.254 1.894 4.254 4.25v14.17c0 2.356-1.898 4.25-4.254 4.25-2.355 0-4.25-1.894-4.25-4.25v-14.18c0-2.356 1.895-4.25 4.25-4.25z" stroke="#000" stroke-width=".5669" fill="#fff"/></g><g transform="matrix(1 0 0 -1 0 141.7)"><path d="m244.7 58.45c2.355 0 4.25 1.899 4.25 4.254v14.17c0 2.355-1.895 4.254-4.25 4.254-2.356 0-4.254-1.899-4.254-4.254v-14.16c0-2.355 1.898-4.254 4.254-4.254z" stroke="#000" stroke-width=".5669" fill="#fff"/></g><g transform="matrix(1 0 0 -1 0 141.7)"><path d="m12.93 29.66c2.355 0 4.25 1.895 4.25 4.25v14.17c0 2.356-1.895 4.254-4.25 4.254-2.356 0-4.254-1.898-4.254-4.254v-14.17c0-2.355 1.898-4.25 4.254-4.25z" stroke="#000" stroke-width=".5669" fill="#fff"/></g><g transform="matrix(1 0 0 -1 0 141.7)"><path d="m22.52 47.4c2.356 0 4.254 1.898 4.254 4.253v14.17c0 2.356-1.898 4.254-4.254 4.254-2.355 0-4.25-1.898-4.25-4.254v-14.17c0-2.355 1.895-4.253 4.25-4.253z" stroke="#000" stroke-width=".5669" fill="#fff"/></g><g transform="matrix(1 0 0 -1 0 141.7)"><path d="m32.12 47.4c2.355 0 4.254 1.898 4.254 4.253v14.17c0 2.356-1.899 4.254-4.254 4.254s-4.25-1.898-4.25-4.254v-14.17c0-2.355 1.895-4.253 4.25-4.253z" stroke="#000" stroke-width=".5669" fill="#fff"/></g><g transform="matrix(1 0 0 -1 0 141.7)"><path d="m41.73 58.08c2.355 0 4.25 1.895 4.25 4.25v14.18c0 2.355-1.895 4.25-4.25 4.25-2.356 0-4.254-1.895-4.254-4.25v-14.18c0-2.355 1.898-4.25 4.254-4.25z" stroke="#000" stroke-width=".5669" fill="#fff"/></g><g transform="matrix(1 0 0 -1 0 141.7)"><path d="m51.32 58.08c2.356 0 4.254 1.895 4.254 4.25v14.18c0 2.355-1.898 4.25-4.254 4.25-2.355 0-4.25-1.895-4.25-4.25v-14.18c0-2.355 1.895-4.25 4.25-4.25z" stroke="#000" stroke-width=".5669" fill="#fff"/></g><g transform="matrix(1 0 0 -1 0 141.7)"><path d="m60.93 63.78c2.191 0 3.957 1.895 3.957 4.25v12.61c0 2.355-1.766 4.25-3.957 4.25-2.196 0-3.961-1.895-3.961-4.25v-12.61c0-2.355 1.765-4.25 3.961-4.25z" stroke="#000" stroke-width=".5669" fill="#fff"/></g><g transform="matrix(1 0 0 -1 0 141.7)"><path d="m269.3 104.5h8.504v22.68h-8.504z" stroke="#000" stroke-width=".5669" fill="#fff"/></g><g transform="matrix(1 0 0 -1 0 141.7)"><path d="m259.7 104.5h8.504v22.68h-8.504z" stroke="#000" stroke-width=".5669" fill="#fff"/></g><g transform="matrix(1 0 0 -1 0 141.7)"><path d="m278.9 104.5h8.504v22.68h-8.504z" stroke="#000" stroke-width=".5669" fill="#fff"/></g><g transform="matrix(1 0 0 -1 0 141.7)"><path d="m288.5 67.7h8.504v22.68h-8.504z" stroke="#000" stroke-width=".5669" fill="#fff"/></g><g transform="matrix(1 0 0 -1 0 141.7)"><path d="m307.7 67.7h8.504v22.68h-8.504z" stroke="#000" stroke-width=".5669" fill="#fff"/></g><g transform="matrix(1 0 0 -1 0 141.7)"><path d="m298.1 67.7h8.504v22.68h-8.504z" stroke="#000" stroke-width=".5669" fill="#fff"/></g><g transform="matrix(1 0 0 -1 0 141.7)"><path d="m75.88 104.5h8.504v22.68h-8.504z" stroke="#000" stroke-width=".5669" fill="#fff"/></g><g transform="matrix(1 0 0 -1 0 141.7)"><path d="m66.27 104.5h8.504v22.68h-8.504z" stroke="#000" stroke-width=".5669" fill="#fff"/></g><g transform="matrix(1 0 0 -1 0 141.7)"><path d="m85.47 104.5h8.504v22.68h-8.504z" stroke="#000" stroke-width=".5669" fill="#fff"/></g><g transform="matrix(1 0 0 -1 0 141.7)"><path d="m95.07 72.94h8.504v22.68h-8.504z" stroke="#000" stroke-width=".5669" fill="#fff"/></g><g transform="matrix(1 0 0 -1 0 141.7)"><path d="m114.3 72.94h8.504v22.68h-8.504z" stroke="#000" stroke-width=".5669" fill="#fff"/></g><g transform="matrix(1 0 0 -1 0 141.7)"><path d="m104.7 72.94h8.504v22.68h-8.504z" stroke="#000" stroke-width=".5669" fill="#fff"/></g></g></g></g><g fill="#000000" font-family="Crimson"><g font-size="10px"><text transform="scale(1,-1)" y="-14.716705" x="320.07703"><tspan y="-14.716705" x="320.07703">3</tspan></text>
<text transform="scale(1,-1)" y="-51.516708" x="320.07703"><tspan y="-51.516708" x="320.07703">4</tspan></text>
<text transform="scale(1,-1)" y="-78.316696" x="320.07703"><tspan y="-78.316696" x="320.07703">2</tspan></text>
<text transform="scale(1,-1)" y="-87.916702" x="320.07703"><tspan y="-87.916702" x="320.07703">3</tspan></text>
<text transform="scale(1,-1)" y="-100.71669" x="320.07703"><tspan y="-100.71669" x="320.07703">4</tspan></text>
<text transform="scale(1,-1)" y="-116.71669" x="320.07703"><tspan y="-116.71669" x="320.07703">5</tspan></text>
<text transform="scale(1,-1)" y="-102.4767" x="204.11703"><tspan y="-102.4767" x="204.11703">1</tspan></text>
</g><text font-size="7.406px" transform="scale(1,-1)" y="-90.886703" x="214.33704"><tspan y="-90.886703" x="214.33704">5</tspan></text>
</g><g transform="translate(30.99 314)"><path d="m181.6-224.9h7.19" stroke="#000" stroke-miterlimit="10" stroke-width=".5180" fill="none"/></g><text font-size="7.406px" transform="scale(1,-1)" y="-82.176712" x="212.53703" font-family="Crimson" fill="#000000"><tspan y="-82.176712" x="212.53703 216.12894">12</tspan></text>
<text font-size="7.406px" transform="scale(1,-1)" y="-90.886703" x="223.92703" font-family="Crimson" fill="#000000"><tspan y="-90.886703" x="223.92703">7</tspan></text>
<g transform="translate(30.99 314)"><path d="m191.2-224.9h7.18" stroke="#000" stroke-miterlimit="10" stroke-width=".5180" fill="none"/></g><text font-size="7.406px" transform="scale(1,-1)" y="-82.176712" x="222.13702" font-family="Crimson" fill="#000000"><tspan y="-82.176712" x="222.13702 225.72894">12</tspan></text>
<text font-size="7.406px" transform="scale(1,-1)" y="-78.086685" x="233.52704" font-family="Crimson" fill="#000000"><tspan y="-78.086685" x="233.52704">3</tspan></text>
<g transform="translate(30.99 314)"><path d="m202.5-237.7h3.6" stroke="#000" stroke-miterlimit="10" stroke-width=".5180" fill="none"/></g><text font-size="7.406px" transform="scale(1,-1)" y="-69.356705" x="233.52704" font-family="Crimson" fill="#000000"><tspan y="-69.356705" x="233.52704">4</tspan></text>
<text font-size="7.406px" transform="scale(1,-1)" y="-78.086685" x="243.12704" font-family="Crimson" fill="#000000"><tspan y="-78.086685" x="243.12704">1</tspan></text>
<g transform="translate(30.99 314)"><path d="m212.1-237.7h3.6" stroke="#000" stroke-miterlimit="10" stroke-width=".5180" fill="none"/></g><g fill="#000000" font-family="Crimson"><text font-size="7.406px" transform="scale(1,-1)" y="-69.356705" x="243.12704"><tspan y="-69.356705" x="243.12704">4</tspan></text>
<text font-size="10px" transform="scale(1,-1)" y="-64.076706" x="252.11703"><tspan y="-64.076706" x="252.11703">1</tspan></text>
<text font-size="7.406px" transform="scale(1,-1)" y="-32.046707" x="260.53702"><tspan y="-32.046707" x="260.53702 264.12894">20</tspan></text>
</g><g transform="translate(30.99 314)"><path d="m229.6-283.8h7.19" stroke="#000" stroke-miterlimit="10" stroke-width=".5180" fill="none"/></g><text font-size="7.406px" transform="scale(1,-1)" y="-23.296707" x="260.53702" font-family="Crimson" fill="#000000"><tspan y="-23.296707" x="260.53702 264.12894">56</tspan></text>
<text font-size="7.406px" transform="scale(1,-1)" y="-32.046707" x="270.13702" font-family="Crimson" fill="#000000"><tspan y="-32.046707" x="270.13702 273.72894">21</tspan></text>
<g transform="translate(30.99 314)"><path d="m239.2-283.8h7.19" stroke="#000" stroke-miterlimit="10" stroke-width=".5180" fill="none"/></g><text font-size="7.406px" transform="scale(1,-1)" y="-23.296707" x="270.13702" font-family="Crimson" fill="#000000"><tspan y="-23.296707" x="270.13702 273.72894">56</tspan></text>
<text font-size="7.406px" transform="scale(1,-1)" y="-32.046707" x="279.72702" font-family="Crimson" fill="#000000"><tspan y="-32.046707" x="279.72702 283.31894">15</tspan></text>
<g transform="translate(30.99 314)"><path d="m248.7-283.8h7.19" stroke="#000" stroke-miterlimit="10" stroke-width=".5180" fill="none"/></g><text font-size="7.406px" transform="scale(1,-1)" y="-23.296707" x="279.72702" font-family="Crimson" fill="#000000"><tspan y="-23.296707" x="279.72702 283.31894">56</tspan></text>
<text font-size="7.406px" transform="scale(1,-1)" y="-68.836685" x="291.12704" font-family="Crimson" fill="#000000"><tspan y="-68.836685" x="291.12704">7</tspan></text>
<g transform="translate(30.99 314)"><path d="m258.4-247h7.19" stroke="#000" stroke-miterlimit="10" stroke-width=".5180" fill="none"/></g><text font-size="7.406px" transform="scale(1,-1)" y="-60.126694" x="289.33704" font-family="Crimson" fill="#000000"><tspan y="-60.126694" x="289.33704 292.92896">72</tspan></text>
<text font-size="7.406px" transform="scale(1,-1)" y="-68.836685" x="298.93704" font-family="Crimson" fill="#000000"><tspan y="-68.836685" x="298.93704 302.52893">21</tspan></text>
<g transform="translate(30.99 314)"><path d="m268-247h7.18" stroke="#000" stroke-miterlimit="10" stroke-width=".5180" fill="none"/></g><text font-size="7.406px" transform="scale(1,-1)" y="-60.126694" x="298.93704" font-family="Crimson" fill="#000000"><tspan y="-60.126694" x="298.93704 302.52893">72</tspan></text>
<text font-size="7.406px" transform="scale(1,-1)" y="-68.836685" x="308.52704" font-family="Crimson" fill="#000000"><tspan y="-68.836685" x="308.52704 312.11893">44</tspan></text>
<g transform="translate(30.99 314)"><path d="m277.5-247h7.19" stroke="#000" stroke-miterlimit="10" stroke-width=".5180" fill="none"/></g><g fill="#000000"><text font-size="7.406px" transform="scale(1,-1)" y="-60.126694" x="308.52704" font-family="Crimson"><tspan y="-60.126694" x="308.52704 312.11893">72</tspan></text>
<text font-size="7.406px" transform="scale(1,-1)" y="-35.526703" x="157.58704" font-family="Crimson"><tspan y="-35.526703" x="157.58704 161.17894 164.77084 168.36276">9192</tspan></text>
<text font-size="7.378px" transform="scale(1,-1)" y="-35.526703" x="171.96703" font-family="&apos;TeX Gyre Termes Math&apos;"><tspan y="-35.526703" x="171.96703">.</tspan></text>
<text font-size="7.406px" transform="scale(1,-1)" y="-35.526703" x="174.14703" font-family="Crimson"><tspan y="-35.526703" x="174.14703 177.73894 181.33086 186.14474 189.73666 193.32857">631770</tspan></text>
<text font-size="7.406px" transform="scale(1,-1)" y="-83.856705" x="169.59703" font-family="Crimson"><tspan y="-83.856705" x="169.59703 173.18893 176.78085">151</tspan></text>
<text font-size="7.378px" transform="scale(1,-1)" y="-83.856705" x="180.38702" font-family="&apos;TeX Gyre Termes Math&apos;"><tspan y="-83.856705" x="180.38702">.</tspan></text>
<text font-size="7.406px" transform="scale(1,-1)" y="-83.856705" x="182.55704" font-family="Crimson"><tspan y="-83.856705" x="182.55704 186.14894 189.74084 193.33276">2247</tspan></text>
<text font-size="7.406px" transform="scale(1,-1)" y="-95.056686" x="169.59703" font-family="Crimson"><tspan y="-95.056686" x="169.59703 173.18893 176.78085">201</tspan></text>
<text font-size="7.378px" transform="scale(1,-1)" y="-95.056686" x="180.38702" font-family="&apos;TeX Gyre Termes Math&apos;"><tspan y="-95.056686" x="180.38702">.</tspan></text>
<text font-size="7.406px" transform="scale(1,-1)" y="-95.056686" x="182.55704" font-family="Crimson"><tspan y="-95.056686" x="182.55704 186.14894 189.74084 193.33276">2871</tspan></text>
<text font-size="7.406px" transform="scale(1,-1)" y="-109.45671" x="169.59703" font-family="Crimson"><tspan y="-109.45671" x="169.59703 173.18893 176.78085">251</tspan></text>
<text font-size="7.378px" transform="scale(1,-1)" y="-109.45671" x="180.38702" font-family="&apos;TeX Gyre Termes Math&apos;"><tspan y="-109.45671" x="180.38702">.</tspan></text>
<text font-size="7.406px" transform="scale(1,-1)" y="-109.45671" x="182.55704" font-family="Crimson"><tspan y="-109.45671" x="182.55704 186.14894 189.74084 193.33276">0916</tspan></text>
<text font-size="9.963px" transform="scale(1,-1)" y="-16.736694" x="143.83704" font-family="&apos;TeX Gyre Termes Math&apos;"><tspan y="-16.736694" x="143.83704">Δ</tspan></text>
<text font-size="9.963px" transform="scale(1,-1)" y="-16.736694" x="151.41702" font-family="&apos;XITS Math&apos;"><tspan y="-16.736694" x="151.41702">ν</tspan></text><g font-family="Crimson">
<text font-size="10px" transform="scale(1,-1)" y="-16.736694" x="156.41702"><tspan y="-16.736694" x="156.41702 160.48703 169.34703 176.43703">,MHz</tspan></text>
<text font-size="10px" transform="scale(1,-1)" y="-124.71669" x="235.58704"><tspan y="-124.71669" x="235.58704">6</tspan></text>
<text font-size="7.406px" transform="scale(1,-1)" y="-128.0867" x="240.44702"><tspan y="-128.0867" x="240.44702">2</tspan></text>
<text font-size="10px" font-style="italic" transform="scale(1,-1)" y="-124.71669" x="244.53702"><tspan y="-124.71669" x="244.53702">P</tspan></text>
<text font-size="7.406px" transform="scale(1,-1)" y="-122.5067" x="249.52704"><tspan y="-122.5067" x="249.52704">3</tspan></text>
</g><text font-size="7.378px" transform="scale(1,-1)" y="-122.5067" x="253.11703" font-family="&apos;TeX Gyre Termes Math&apos;"><tspan y="-122.5067" x="253.11703">/</tspan></text>
<text font-size="7.406px" transform="scale(1,-1)" y="-122.5067" x="256.55704" font-family="Crimson"><tspan y="-122.5067" x="256.55704">2</tspan></text>
<text font-size="9.963px" transform="scale(1,-1)" y="-124.71669" x="260.64703" font-family="&apos;TeX Gyre Termes Math&apos;"><tspan y="-124.71669" x="260.64703 264.79163">,∣</tspan></text>
<text font-size="10px" font-style="italic" transform="scale(1,-1)" y="-124.71669" x="266.85703" font-family="Crimson"><tspan y="-124.71669" x="266.85703">F</tspan></text>
<text font-size="7.378px" transform="scale(1,-1)" y="-122.5067" x="271.81702" font-family="&apos;XITS Math&apos;"><tspan y="-122.5067" x="271.81702">e</tspan></text>
<text font-size="9.963px" transform="scale(1,-1)" y="-124.71669" x="275.59702" font-family="&apos;TeX Gyre Termes Math&apos;"><tspan y="-124.71669" x="275.59702">⟩</tspan></text><g font-family="Crimson">
<text font-size="10px" transform="scale(1,-1)" y="-6.3166966" x="235.30704"><tspan y="-6.3166966" x="235.30704">6</tspan></text>
<text font-size="7.406px" transform="scale(1,-1)" y="-9.696701" x="240.15704"><tspan y="-9.696701" x="240.15704">2</tspan></text>
<text font-size="10px" font-style="italic" transform="scale(1,-1)" y="-6.3166966" x="244.24704"><tspan y="-6.3166966" x="244.24704">S</tspan></text>
<text font-size="7.406px" transform="scale(1,-1)" y="-4.1067052" x="248.85703"><tspan y="-4.1067052" x="248.85703">1</tspan></text>
</g><text font-size="7.378px" transform="scale(1,-1)" y="-4.1067052" x="252.45703" font-family="&apos;TeX Gyre Termes Math&apos;"><tspan y="-4.1067052" x="252.45703">/</tspan></text>
<text font-size="7.406px" transform="scale(1,-1)" y="-4.1067052" x="255.88702" font-family="Crimson"><tspan y="-4.1067052" x="255.88702">2</tspan></text>
<text font-size="9.963px" transform="scale(1,-1)" y="-6.3166966" x="259.98703" font-family="&apos;TeX Gyre Termes Math&apos;"><tspan y="-6.3166966" x="259.98703 264.13165">,∣</tspan></text>
<text font-size="10px" font-style="italic" transform="scale(1,-1)" y="-6.3166966" x="266.21704" font-family="Crimson"><tspan y="-6.3166966" x="266.21704">F</tspan></text>
<text font-size="7.378px" transform="scale(1,-1)" y="-4.1067052" x="271.17703" font-family="&apos;XITS Math&apos;"><tspan y="-4.1067052" x="271.17703">g</tspan></text>
<text font-size="9.963px" transform="scale(1,-1)" y="-6.3166966" x="275.59702" font-family="&apos;TeX Gyre Termes Math&apos;"><tspan y="-6.3166966" x="275.59702">⟩</tspan></text><g font-family="Crimson"><g font-size="10px">
<text transform="scale(1,-1)" y="-14.716705" x="-0.29296878"><tspan y="-14.716705" x="-0.29296878">1</tspan></text>
<text transform="scale(1,-1)" y="-51.516708" x="-0.29296878"><tspan y="-51.516708" x="-0.29296878">2</tspan></text>
<text transform="scale(1,-1)" y="-78.316696" x="-0.29296878"><tspan y="-78.316696" x="-0.29296878">0</tspan></text>
<text transform="scale(1,-1)" y="-87.916702" x="-0.29296878"><tspan y="-87.916702" x="-0.29296878">1</tspan></text>
<text transform="scale(1,-1)" y="-100.71669" x="-0.29296878"><tspan y="-100.71669" x="-0.29296878">2</tspan></text>
<text transform="scale(1,-1)" y="-116.71669" x="-0.29296878"><tspan y="-116.71669" x="-0.29296878">3</tspan></text>
<text transform="scale(1,-1)" y="-124.71669" x="45.30703"><tspan y="-124.71669" x="45.30703">3</tspan></text>
</g><text font-size="7.406px" transform="scale(1,-1)" y="-128.0867" x="50.16703"><tspan y="-128.0867" x="50.16703">2</tspan></text>
<text font-size="10px" font-style="italic" transform="scale(1,-1)" y="-124.71669" x="54.257027"><tspan y="-124.71669" x="54.257027">P</tspan></text>
<text font-size="7.406px" transform="scale(1,-1)" y="-122.5067" x="59.247032"><tspan y="-122.5067" x="59.247032">3</tspan></text>
</g><text font-size="7.378px" transform="scale(1,-1)" y="-122.5067" x="62.837029" font-family="&apos;TeX Gyre Termes Math&apos;"><tspan y="-122.5067" x="62.837029">/</tspan></text>
<text font-size="7.406px" transform="scale(1,-1)" y="-122.5067" x="66.277031" font-family="Crimson"><tspan y="-122.5067" x="66.277031">2</tspan></text>
<text font-size="9.963px" transform="scale(1,-1)" y="-124.71669" x="70.367027" font-family="&apos;TeX Gyre Termes Math&apos;"><tspan y="-124.71669" x="70.367027 74.521599">,∣</tspan></text>
<text font-size="10px" font-style="italic" transform="scale(1,-1)" y="-124.71669" x="76.577026" font-family="Crimson"><tspan y="-124.71669" x="76.577026">F</tspan></text>
<text font-size="7.378px" transform="scale(1,-1)" y="-122.5067" x="81.537033" font-family="&apos;XITS Math&apos;"><tspan y="-122.5067" x="81.537033">e</tspan></text>
<text font-size="9.963px" transform="scale(1,-1)" y="-124.71669" x="85.317032" font-family="&apos;TeX Gyre Termes Math&apos;"><tspan y="-124.71669" x="85.317032">⟩</tspan></text><g font-family="Crimson">
<text font-size="10px" transform="scale(1,-1)" y="-6.3166966" x="45.027031"><tspan y="-6.3166966" x="45.027031">3</tspan></text>
<text font-size="7.406px" transform="scale(1,-1)" y="-9.696701" x="49.877029"><tspan y="-9.696701" x="49.877029">2</tspan></text>
<text font-size="10px" font-style="italic" transform="scale(1,-1)" y="-6.3166966" x="53.967033"><tspan y="-6.3166966" x="53.967033">S</tspan></text>
<text font-size="7.406px" transform="scale(1,-1)" y="-4.1067052" x="58.577026"><tspan y="-4.1067052" x="58.577026">1</tspan></text>
</g><text font-size="7.378px" transform="scale(1,-1)" y="-4.1067052" x="62.177032" font-family="&apos;TeX Gyre Termes Math&apos;"><tspan y="-4.1067052" x="62.177032">/</tspan></text>
<text font-size="7.406px" transform="scale(1,-1)" y="-4.1067052" x="65.617027" font-family="Crimson"><tspan y="-4.1067052" x="65.617027">2</tspan></text>
<text font-size="9.963px" transform="scale(1,-1)" y="-6.3166966" x="69.707031" font-family="&apos;TeX Gyre Termes Math&apos;"><tspan y="-6.3166966" x="69.707031 73.851639">,∣</tspan></text>
<text font-size="10px" font-style="italic" transform="scale(1,-1)" y="-6.3166966" x="75.937027" font-family="Crimson"><tspan y="-6.3166966" x="75.937027">F</tspan></text>
<text font-size="7.378px" transform="scale(1,-1)" y="-4.1067052" x="80.897034" font-family="&apos;XITS Math&apos;"><tspan y="-4.1067052" x="80.897034">g</tspan></text>
<text font-size="9.963px" transform="scale(1,-1)" y="-6.3166966" x="85.317032" font-family="&apos;TeX Gyre Termes Math&apos;"><tspan y="-6.3166966" x="85.317032">⟩</tspan></text><g font-family="Crimson">
<text font-size="10px" transform="scale(1,-1)" y="-102.4767" x="10.71703"><tspan y="-102.4767" x="10.71703">1</tspan></text>
<text font-size="10px" transform="scale(1,-1)" y="-69.696701" x="58.717033"><tspan y="-69.696701" x="58.717033">1</tspan></text>
<text font-size="7.406px" transform="scale(1,-1)" y="-32.046707" x="68.927032"><tspan y="-32.046707" x="68.927032">2</tspan></text>
</g></g><g transform="translate(30.99 314)"><path d="m36.15-283.8h7.19" stroke="#000" stroke-miterlimit="10" stroke-width=".5180" fill="none"/></g><text font-size="7.406px" transform="scale(1,-1)" y="-23.326706" x="67.137032" font-family="Crimson" fill="#000000"><tspan y="-23.326706" x="67.137032 70.728943">12</tspan></text>
<text font-size="7.406px" transform="scale(1,-1)" y="-32.046707" x="78.527031" font-family="Crimson" fill="#000000"><tspan y="-32.046707" x="78.527031">5</tspan></text>
<g transform="translate(30.99 314)"><path d="m45.74-283.8h7.19" stroke="#000" stroke-miterlimit="10" stroke-width=".5180" fill="none"/></g><text font-size="7.406px" transform="scale(1,-1)" y="-23.326706" x="76.727028" font-family="Crimson" fill="#000000"><tspan y="-23.326706" x="76.727028 80.318939">12</tspan></text>
<text font-size="7.406px" transform="scale(1,-1)" y="-32.046707" x="88.137024" font-family="Crimson" fill="#000000"><tspan y="-32.046707" x="88.137024">5</tspan></text>
<g transform="translate(30.99 314)"><path d="m55.35-283.8h7.19" stroke="#000" stroke-miterlimit="10" stroke-width=".5180" fill="none"/></g><g fill="#000000"><text font-size="7.406px" transform="scale(1,-1)" y="-23.326706" x="86.337029" font-family="Crimson"><tspan y="-23.326706" x="86.337029 89.92894">12</tspan></text>
<text font-size="7.406px" transform="scale(1,-1)" y="-26.756699" x="126.84703" font-family="Crimson"><tspan y="-26.756699" x="126.84703 130.43893 134.03085 137.62276">1771</tspan></text>
<text font-size="7.378px" transform="scale(1,-1)" y="-26.756699" x="141.21703" font-family="&apos;TeX Gyre Termes Math&apos;"><tspan y="-26.756699" x="141.21703">.</tspan></text>
<text font-size="7.406px" transform="scale(1,-1)" y="-26.756699" x="143.39703" font-family="Crimson"><tspan y="-26.756699" x="143.39703 146.98894 150.58086 155.39474 158.98666 162.57857 167.39987">6261288</tspan></text>
<text font-size="7.406px" transform="scale(1,-1)" y="-86.576706" x="128.33704" font-family="Crimson"><tspan y="-86.576706" x="128.33704 131.92894">15</tspan></text>
<text font-size="7.378px" transform="scale(1,-1)" y="-86.576706" x="135.52702" font-family="&apos;TeX Gyre Termes Math&apos;"><tspan y="-86.576706" x="135.52702">.</tspan></text>
<text font-size="7.406px" transform="scale(1,-1)" y="-86.576706" x="137.70703" font-family="Crimson"><tspan y="-86.576706" x="137.70703 141.29893 144.89085">810</tspan></text>
<text font-size="7.406px" transform="scale(1,-1)" y="-94.376694" x="128.33704" font-family="Crimson"><tspan y="-94.376694" x="128.33704 131.92894">34</tspan></text>
<text font-size="7.378px" transform="scale(1,-1)" y="-94.376694" x="135.52702" font-family="&apos;TeX Gyre Termes Math&apos;"><tspan y="-94.376694" x="135.52702">.</tspan></text>
<text font-size="7.406px" transform="scale(1,-1)" y="-94.376694" x="137.70703" font-family="Crimson"><tspan y="-94.376694" x="137.70703 141.29893 144.89085">344</tspan></text>
<text font-size="7.406px" transform="scale(1,-1)" y="-108.58669" x="128.33704" font-family="Crimson"><tspan y="-108.58669" x="128.33704 131.92894">58</tspan></text>
<text font-size="7.378px" transform="scale(1,-1)" y="-108.58669" x="135.52702" font-family="&apos;TeX Gyre Termes Math&apos;"><tspan y="-108.58669" x="135.52702">.</tspan></text>
<text font-size="7.406px" transform="scale(1,-1)" y="-108.58669" x="137.70703" font-family="Crimson"><tspan y="-108.58669" x="137.70703 141.29893 144.89085">326</tspan></text>
<text font-size="7.406px" transform="scale(1,-1)" y="-89.146713" x="30.527031" font-family="Crimson"><tspan y="-89.146713" x="30.527031">1</tspan></text>
</g><g transform="translate(30.99 314)"><path d="m-0.46-226.6h3.6" stroke="#000" stroke-miterlimit="10" stroke-width=".5180" fill="none"/></g><text font-size="7.406px" transform="scale(1,-1)" y="-80.436691" x="30.527031" font-family="Crimson" fill="#000000"><tspan y="-80.436691" x="30.527031">2</tspan></text>
<text font-size="7.406px" transform="scale(1,-1)" y="-78.46669" x="49.727028" font-family="Crimson" fill="#000000"><tspan y="-78.46669" x="49.727028">1</tspan></text>
<g transform="translate(30.99 314)"><path d="m18.74-237.3h3.6" stroke="#000" stroke-miterlimit="10" stroke-width=".5180" fill="none"/></g><text font-size="7.406px" transform="scale(1,-1)" y="-69.71669" x="49.727028" font-family="Crimson" fill="#000000"><tspan y="-69.71669" x="49.727028">6</tspan></text>
<text font-size="7.406px" transform="scale(1,-1)" y="-63.596695" x="97.727036" font-family="Crimson" fill="#000000"><tspan y="-63.596695" x="97.727036">1</tspan></text>
<g transform="translate(30.99 314)"><path d="m64.95-252.2h7.18" stroke="#000" stroke-miterlimit="10" stroke-width=".5180" fill="none"/></g><text font-size="7.406px" transform="scale(1,-1)" y="-54.886703" x="95.937027" font-family="Crimson" fill="#000000"><tspan y="-54.886703" x="95.937027 99.528946">20</tspan></text>
<text font-size="7.406px" transform="scale(1,-1)" y="-63.596695" x="107.32703" font-family="Crimson" fill="#000000"><tspan y="-63.596695" x="107.32703">5</tspan></text>
<g transform="translate(30.99 314)"><path d="m74.54-252.2h7.19" stroke="#000" stroke-miterlimit="10" stroke-width=".5180" fill="none"/></g><text font-size="7.406px" transform="scale(1,-1)" y="-54.886703" x="105.52702" font-family="Crimson" fill="#000000"><tspan y="-54.886703" x="105.52702 109.11894">20</tspan></text>
<text font-size="7.406px" transform="scale(1,-1)" y="-63.596695" x="115.13702" font-family="Crimson" fill="#000000"><tspan y="-63.596695" x="115.13702 118.72894">14</tspan></text>
<g transform="translate(30.99 314)"><path d="m84.15-252.2h7.19" stroke="#000" stroke-miterlimit="10" stroke-width=".5180" fill="none"/></g><text font-size="7.406px" transform="scale(1,-1)" y="-54.886703" x="115.13702" font-family="Crimson" fill="#000000"><tspan y="-54.886703" x="115.13702 118.72894">20</tspan></text>
<text font-size="7.406px" transform="scale(1,-1)" y="-89.146713" x="20.927029" font-family="Crimson" fill="#000000"><tspan y="-89.146713" x="20.927029">1</tspan></text>
<g transform="translate(30.99 314)"><path d="m-10.06-226.6h3.6" stroke="#000" stroke-miterlimit="10" stroke-width=".5180" fill="none"/></g><text font-size="7.406px" transform="scale(1,-1)" y="-80.436691" x="20.927029" font-family="Crimson" fill="#000000"><tspan y="-80.436691" x="20.927029">2</tspan></text>
<text font-size="7.406px" transform="scale(1,-1)" y="-78.46669" x="40.127029" font-family="Crimson" fill="#000000"><tspan y="-78.46669" x="40.127029">5</tspan></text>
<g transform="translate(30.99 314)"><path d="m9.14-237.3h3.6" stroke="#000" stroke-miterlimit="10" stroke-width=".5180" fill="none"/></g><g fill="#000000"><text font-size="7.406px" transform="scale(1,-1)" y="-69.71669" x="40.127029" font-family="Crimson"><tspan y="-69.71669" x="40.127029">6</tspan></text>
<text font-size="10px" transform="scale(1,-1)" y="-138.3167" x="20.447029" font-family="Crimson"><tspan y="-138.3167" x="20.447029 27.787033">Na</tspan></text>
<text font-size="9.963px" transform="scale(1,-1)" y="-138.3167" x="34.107033" font-family="&apos;XITS Math&apos;"><tspan y="-138.3167" x="34.107033">τ</tspan></text>
<text font-size="7.378px" transform="scale(1,-1)" y="-135.82671" x="38.507027" font-family="&apos;XITS Math&apos;"><tspan y="-135.82671" x="38.507027">e</tspan></text>
<text font-size="9.963px" transform="scale(1,-1)" y="-138.3167" x="45.05703" font-family="&apos;TeX Gyre Termes Math&apos;"><tspan y="-138.3167" x="45.05703">=</tspan></text>
<text font-size="10px" transform="scale(1,-1)" y="-138.3167" x="54.397034" font-family="Crimson"><tspan y="-138.3167" x="54.397034 59.247032">16</tspan></text>
<text font-size="9.963px" transform="scale(1,-1)" y="-138.3167" x="64.107033" font-family="&apos;TeX Gyre Termes Math&apos;"><tspan y="-138.3167" x="64.107033">.</tspan></text>
<text font-size="10px" transform="scale(1,-1)" y="-138.3167" x="66.597031" font-family="Crimson"><tspan y="-138.3167" x="66.597031 71.447029 76.297028 81.147034">2492</tspan></text>
<text font-size="9.963px" transform="scale(1,-1)" y="-138.3167" x="86.007027" font-family="&apos;TeX Gyre Termes Math&apos;"><tspan y="-138.3167" x="86.007027">(</tspan></text>
<text font-size="10px" transform="scale(1,-1)" y="-138.3167" x="89.977036" font-family="Crimson"><tspan y="-138.3167" x="89.977036 94.827026">77</tspan></text>
<text font-size="9.963px" transform="scale(1,-1)" y="-138.3167" x="99.687027" font-family="&apos;TeX Gyre Termes Math&apos;"><tspan y="-138.3167" x="99.687027">)</tspan></text>
<text font-size="10px" transform="scale(1,-1)" y="-138.3167" x="105.30704" font-family="Crimson"><tspan y="-138.3167" x="105.30704 110.50703">ns</tspan></text>
<text font-size="10px" transform="scale(1,-1)" y="-138.3167" x="213.83704" font-family="Crimson"><tspan y="-138.3167" x="213.83704 220.41702">Cs</tspan></text>
<text font-size="9.963px" transform="scale(1,-1)" y="-138.3167" x="226.13702" font-family="&apos;XITS Math&apos;"><tspan y="-138.3167" x="226.13702">τ</tspan></text>
<text font-size="7.378px" transform="scale(1,-1)" y="-135.82671" x="230.53702" font-family="&apos;XITS Math&apos;"><tspan y="-135.82671" x="230.53702">e</tspan></text>
<text font-size="9.963px" transform="scale(1,-1)" y="-138.3167" x="237.08704" font-family="&apos;TeX Gyre Termes Math&apos;"><tspan y="-138.3167" x="237.08704">=</tspan></text>
<text font-size="10px" transform="scale(1,-1)" y="-138.3167" x="246.42703" font-family="Crimson"><tspan y="-138.3167" x="246.42703 251.27704">30</tspan></text>
<text font-size="9.963px" transform="scale(1,-1)" y="-138.3167" x="256.13702" font-family="&apos;TeX Gyre Termes Math&apos;"><tspan y="-138.3167" x="256.13702">.</tspan></text>
<text font-size="10px" transform="scale(1,-1)" y="-138.3167" x="258.62704" font-family="Crimson"><tspan y="-138.3167" x="258.62704 263.47702 268.32703">405</tspan></text>
<text font-size="9.963px" transform="scale(1,-1)" y="-138.3167" x="273.18704" font-family="&apos;TeX Gyre Termes Math&apos;"><tspan y="-138.3167" x="273.18704">(</tspan></text>
<text font-size="10px" transform="scale(1,-1)" y="-138.3167" x="277.15704" font-family="Crimson"><tspan y="-138.3167" x="277.15704 282.00702">77</tspan></text>
<text font-size="9.963px" transform="scale(1,-1)" y="-138.3167" x="286.86703" font-family="&apos;TeX Gyre Termes Math&apos;"><tspan y="-138.3167" x="286.86703">)</tspan></text><g font-family="Crimson">
<text font-size="10px" transform="scale(1,-1)" y="-138.3167" x="292.48703"><tspan y="-138.3167" x="292.48703 297.68704">ns</tspan></text>
<text font-size="10px" font-style="italic" transform="scale(1,-1)" y="-28.816696" x="99.807037"><tspan y="-28.816696" x="99.807037">S</tspan></text>
<text font-size="7.406px" font-style="italic" transform="scale(1,-1)" y="-26.596695" x="104.41702"><tspan y="-26.596695" x="104.41702">F</tspan></text>
</g><text font-size="5.484px" transform="scale(1,-1)" y="-24.386703" x="108.08704" font-family="&apos;XITS Math&apos;"><tspan y="-24.386703" x="108.08704">g</tspan></text>
<text font-size="7.406px" font-style="italic" transform="scale(1,-1)" y="-26.596695" x="113.00703" font-family="Crimson"><tspan y="-26.596695" x="113.00703">F</tspan></text>
<text font-size="5.484px" transform="scale(1,-1)" y="-24.386703" x="116.67703" font-family="&apos;XITS Math&apos;"><tspan y="-24.386703" x="116.67703">e</tspan></text>
<text font-size="10px" font-style="italic" transform="scale(1,-1)" y="-28.816696" x="293.30704" font-family="Crimson"><tspan y="-28.816696" x="293.30704">S</tspan></text>
<text font-size="7.406px" font-style="italic" transform="scale(1,-1)" y="-26.596695" x="297.91702" font-family="Crimson"><tspan y="-26.596695" x="297.91702">F</tspan></text>
<text font-size="5.484px" transform="scale(1,-1)" y="-24.386703" x="301.58704" font-family="&apos;XITS Math&apos;"><tspan y="-24.386703" x="301.58704">g</tspan></text>
<text font-size="7.406px" font-style="italic" transform="scale(1,-1)" y="-26.596695" x="306.50702" font-family="Crimson"><tspan y="-26.596695" x="306.50702">F</tspan></text>
<text font-size="5.484px" transform="scale(1,-1)" y="-24.386703" x="310.17703" font-family="&apos;XITS Math&apos;"><tspan y="-24.386703" x="310.17703">e</tspan></text>
<text font-size="9.963px" transform="scale(1,-1)" y="-109.8167" x="25.907028" font-family="&apos;TeX Gyre Termes Math&apos;"><tspan y="-109.8167" x="25.907028">Π</tspan></text>
<text font-size="7.406px" font-style="italic" transform="scale(1,-1)" y="-107.59669" x="34.30703" font-family="Crimson"><tspan y="-107.59669" x="34.30703">F</tspan></text>
<text font-size="5.484px" transform="scale(1,-1)" y="-105.3867" x="37.98703" font-family="&apos;XITS Math&apos;"><tspan y="-105.3867" x="37.98703">e</tspan></text>
<text font-size="7.406px" font-style="italic" transform="scale(1,-1)" y="-107.59669" x="42.41703" font-family="Crimson"><tspan y="-107.59669" x="42.41703">F</tspan></text>
<text font-size="5.484px" transform="scale(1,-1)" y="-105.3867" x="46.097031" font-family="&apos;XITS Math&apos;"><tspan y="-105.3867" x="46.097031">g</tspan></text>
<text font-size="9.963px" transform="scale(1,-1)" y="-109.8567" x="220.55704" font-family="&apos;TeX Gyre Termes Math&apos;"><tspan y="-109.8567" x="220.55704">Π</tspan></text>
<text font-size="7.406px" font-style="italic" transform="scale(1,-1)" y="-107.64671" x="228.94702" font-family="Crimson"><tspan y="-107.64671" x="228.94702">F</tspan></text>
<text font-size="5.484px" transform="scale(1,-1)" y="-105.43669" x="232.62704" font-family="&apos;XITS Math&apos;"><tspan y="-105.43669" x="232.62704">e</tspan></text>
<text font-size="7.406px" font-style="italic" transform="scale(1,-1)" y="-107.64671" x="237.06702" font-family="Crimson"><tspan y="-107.64671" x="237.06702">F</tspan></text>
<text font-size="5.484px" transform="scale(1,-1)" y="-105.43669" x="240.73703" font-family="&apos;XITS Math&apos;"><tspan y="-105.43669" x="240.73703">g</tspan></text>
</g></g></svg>
